<!--
  - Copyright (c) 2024 jesusd0897.
  -
  - Licensed under the Apache License, Version 2.0 (the "License");
  - you may not use this file except in compliance with the License.
  - You may obtain a copy of the License at
  -
  -     http://www.apache.org/licenses/LICENSE-2.0
  -
  - Unless required by applicable law or agreed to in writing, software
  - distributed under the License is distributed on an "AS IS" BASIS,
  - WITHOUT WARRANTIES OR CONDITIONS OF ANY KIND, either express or implied.
  - See the License for the specific language governing permissions and
  - limitations under the License.
  -->

<svg height="56" id="vector" viewBox="0 0 514.82 514.82" width="56"
    xmlns="http://www.w3.org/2000/svg">
    <path
        d="M258.53,484.73c-126,0 -228.44,-102.49 -228.4,-228.61S132.89,26.78 259.59,28.55c126,1.76 227.28,99.84 226.76,229C485.86,382.32 385.47,484.18 258.53,484.73ZM414.97,207.66c0,-4.56 -1.85,-8 -5.59,-10.08 -4.63,-2.63 -8.22,0.18 -11.72,2.77q-38.94,28.83 -77.86,57.68c-16.77,12.43 -33.42,25 -50.36,37.21 -6.91,5 -8.72,11.28 -4.4,18 5,7.7 10.7,3.13 16,-0.78q63.36,-46.92 126.81,-93.71C411.74,215.84 414.78,212.66 414.97,207.66ZM338.16,347.12c21.23,0 42.46,-0.12 63.69,0.06 8,0.06 13.06,-3.32 12.91,-11.38 -0.15,-7.5 -4.92,-10.7 -12.6,-10.67q-63.2,0.27 -126.39,0c-8.11,0 -12.82,2.84 -12.68,11.36 0.14,8 4.76,10.74 12.38,10.66C296.33,346.97 317.23,347.11 338.16,347.12ZM337.74,187.66c21.24,0 42.5,-0.18 63.74,0.1 8,0.1 13.27,-2.9 13.3,-11s-5.28,-11.15 -13.21,-11.12q-62.76,0.22 -125.5,0c-8,0 -13.05,2.4 -13.07,11s5,11.22 13,11.12C296.56,187.44 317.16,187.66 337.74,187.66ZM176.16,325.21c-19.88,0 -39.77,0.24 -59.64,-0.11 -8.08,-0.15 -12.58,2.58 -12.64,11 -0.07,8.85 5.4,11.05 13,11 39.76,-0.06 79.53,-0.13 119.29,0.07 8.08,0 13.12,-3.13 13,-11.23s-5.44,-11 -13.39,-10.87C215.95,325.41 196.06,325.21 176.16,325.21ZM176.26,165.64c-19.58,0 -39.17,0.2 -58.74,-0.1 -8.49,-0.13 -13.56,3.06 -13.58,11.79 0,9.1 6.4,10.31 13.67,10.3 39.49,0 79,-0.12 118.47,0.08 8.05,0 13.18,-3 13.16,-11.13s-5.23,-11.16 -13.25,-11C216.1,165.83 196.16,165.66 176.28,165.66ZM166.6,267.37c16.91,0 33.82,-0.24 50.71,0.1 7.93,0.17 13.31,-2.67 13.74,-10.69 0.48,-8.77 -5.09,-11.5 -13.33,-11.45q-50.22,0.32 -100.43,0c-8.59,0 -13.39,3.35 -13.32,12 0.07,8.4 5.92,10.05 12.91,10C133.47,267.33 150.05,267.36 166.62,267.37Z"
        fill="#0083dd" id="path_0" />
    <path
        d="M414.97,207.66c-0.19,4.94 -3.23,8.16 -7.14,11q-63.45,46.79 -126.81,93.71c-5.28,3.91 -11,8.48 -16,0.78 -4.32,-6.68 -2.51,-13 4.4,-18 16.94,-12.2 33.59,-24.78 50.36,-37.21q38.92,-28.84 77.86,-57.68c3.5,-2.59 7.09,-5.4 11.72,-2.77C413.16,199.71 414.96,203.12 414.97,207.66Z"
        fill="#fdfefe" id="path_1" />
    <path
        d="M338.16,347.11c-20.9,0 -41.8,-0.14 -62.69,0.07 -7.62,0.08 -12.24,-2.65 -12.38,-10.66 -0.14,-8.52 4.57,-11.39 12.68,-11.36q63.19,0.25 126.39,0c7.68,0 12.45,3.17 12.6,10.67 0.15,8.06 -4.9,11.44 -12.91,11.38C380.59,347 359.36,347.12 338.16,347.11Z"
        fill="#fdfefe" id="path_2" />
    <path
        d="M337.74,187.66c-20.59,0 -41.18,-0.17 -61.76,0.09 -8,0.1 -13,-2.53 -13,-11.12s5.12,-11.06 13.07,-11q62.74,0.27 125.5,0c7.93,0 13.23,3 13.21,11.12s-5.28,11.13 -13.3,11C380.24,187.43 358.98,187.66 337.74,187.66Z"
        fill="#fdfefe" id="path_3" />
    <path
        d="M176.16,325.21c19.88,0 39.77,0.2 59.64,-0.1 8,-0.12 13.29,2.7 13.39,10.87s-4.94,11.27 -13,11.23c-39.76,-0.2 -79.53,-0.13 -119.29,-0.07 -7.6,0 -13.07,-2.19 -13,-11 0.06,-8.42 4.56,-11.15 12.64,-11C136.41,325.45 156.3,325.21 176.16,325.21Z"
        fill="#fdfefe" id="path_4" />
    <path
        d="M176.28,165.66c19.91,0 39.82,0.19 59.73,-0.1 8,-0.12 13.22,2.9 13.25,11s-5.11,11.17 -13.16,11.13c-39.49,-0.2 -79,-0.12 -118.47,-0.08 -7.27,0 -13.7,-1.2 -13.67,-10.3 0,-8.73 5.09,-11.92 13.58,-11.79C137.16,165.84 156.7,165.66 176.28,165.66Z"
        fill="#fdfefe" id="path_5" />
    <path
        d="M166.62,267.37c-16.57,0 -33.15,0 -49.72,0 -7,0 -12.84,-1.63 -12.91,-10 -0.07,-8.67 4.73,-12.07 13.32,-12q50.21,0.33 100.43,0c8.24,0 13.81,2.68 13.33,11.45 -0.43,8 -5.81,10.86 -13.74,10.69C200.44,267.13 183.53,267.37 166.62,267.37Z"
        fill="#fdfefe" id="path_6" />
</svg>